# xmcd CD database file
#
# Track frame offsets:
#	150
#	29442
#	65115
#	87697
#	100450
#	142240
#	166892
#	192845
#	221265
#	253497
#
# Disc length: 3690 seconds
#
# Revision: 7
# Processed by: cddbd v1.4PL0 Copyright (c) Steve Scherf et al.
# Submitted via: CDex 1.40Beta9
#
DISCID=9f0e680a
DTITLE=Ozzy Osbourne - Live and Loud [CD 2)
DYEAR=1995
DGENRE=Rock
TTITLE0=Shot in the Dark
TTITLE1=No More Tears
TTITLE2=Miracle Man
TTITLE3=Drum Solo
TTITLE4=War Pigs
TTITLE5=Bark At the Moon
TTITLE6=Mama, I'm Coming Home
TTITLE7=Crazy Train
TTITLE8=Black Sabbath
TTITLE9=Changes
EXTD=Ozzy: Live and Loud II\n YEAR: 1995 ID3G: 17
EXTT0=
EXTT1=
EXTT2=
EXTT3=
EXTT4=
EXTT5=
EXTT6=
EXTT7=
EXTT8=
EXTT9=
PLAYORDER=
